<?xml version="1.0" encoding="UTF-8"?>
<!DOCTYPE svg PUBLIC "-//W3C//DTD SVG 1.1//EN" "http://www.w3.org/Graphics/SVG/1.1/DTD/svg11.dtd">
<!-- Creator: CorelDRAW X7 -->
<svg xmlns="http://www.w3.org/2000/svg" xml:space="preserve" width="1123px" height="794px" version="1.1" style="shape-rendering:geometricPrecision; text-rendering:geometricPrecision; image-rendering:optimizeQuality; fill-rule:evenodd; clip-rule:evenodd"
viewBox="0 0 1123 794"
 xmlns:xlink="http://www.w3.org/1999/xlink">
 <defs>
  <style type="text/css">
   <![CDATA[
    .str0 {stroke:black;stroke-width:18.9057}
    .str1 {stroke:black;stroke-width:5.67172}
    .str3 {stroke:#E2293F;stroke-width:5.67172}
    .str2 {stroke:#E2293F;stroke-width:5.67172;stroke-linejoin:round}
    .fil4 {fill:none}
    .fil2 {fill:black}
    .fil1 {fill:#1D1C1C}
    .fil0 {fill:#E2293F}
    .fil7 {fill:#F3B404}
    .fil3 {fill:white}
    .fil5 {fill:black;fill-rule:nonzero}
    .fil6 {fill:black;fill-rule:nonzero}
   ]]>
  </style>
 </defs>
 <g id="Layer_x0020_1">
  <metadata id="CorelCorpID_0Corel-Layer"/>
  <circle class="fil0" cx="562" cy="397" r="331"/>
  <g>
   <path class="fil1" d="M594 140c71,0 122,55 114,123 -4,37 -25,70 -54,92 6,-4 13,-6 20,-6 31,0 57,39 57,87 0,20 -5,38 -12,53 11,11 17,24 18,38 0,37 -34,69 -92,69 -30,1 -81,1 -100,-14 -15,-11 -3,-39 -3,-55 0,-32 34,-59 78,-65 -1,-9 -2,-5 -2,-26 0,-21 3,-40 11,-60 -24,10 -34,9 -63,9 -29,0 -54,-9 -73,-24 10,25 6,59 -15,88 -27,39 -73,52 -102,30 -29,-22 -30,-71 -3,-109 25,-36 66,-50 95,-35 -13,-21 -19,-45 -16,-72 8,-68 71,-123 142,-123z"/>
   <path id="1" class="fil2" d="M594 125c5,0 11,0 17,1 32,4 61,18 81,40 20,22 32,51 32,83l0 0c0,5 0,10 -1,15 -2,21 -9,40 -19,57 -4,6 -7,11 -11,16 13,5 25,16 34,29 11,18 19,43 19,70 0,11 -2,21 -4,31 -1,7 -3,13 -5,19 3,5 6,10 9,15 3,8 5,17 6,26l0 0 0 0 0 0c0,23 -11,44 -30,60 -18,14 -43,24 -76,24 0,0 0,0 -1,0l-2 0c-32,1 -84,1 -108,-17 -17,-14 -13,-34 -10,-53 1,-5 2,-10 2,-14 0,-21 10,-39 28,-54 12,-10 29,-19 48,-23 0,-4 0,-8 0,-14 0,-11 1,-22 3,-33 0,-1 0,-3 0,-4 -9,1 -19,1 -33,1 -7,0 15,0 -7,0 -16,0 -30,-2 -44,-6 -3,-1 -6,-2 -9,-4 0,6 0,11 -1,17 -3,17 -10,35 -21,51 -1,1 -2,2 -3,3 -15,21 -36,35 -57,41 -22,6 -44,3 -63,-9 -1,-1 -1,-1 -1,-2 -19,-14 -28,-36 -29,-60 0,-23 7,-48 23,-70 14,-20 33,-35 53,-42 9,-3 19,-5 28,-5 -1,-4 -2,-7 -3,-10 0,0 0,-1 0,-1 -3,-13 -4,-27 -2,-42 4,-38 24,-72 52,-96 29,-25 66,-40 105,-40zm35 251c-24,10 -34,9 -63,9 -29,0 -54,-9 -73,-24 10,25 6,59 -15,88 -27,39 -73,52 -102,30 -29,-22 -30,-71 -3,-109 25,-36 66,-50 95,-35 -13,-21 -19,-45 -16,-72 8,-68 71,-123 142,-123 71,0 122,55 114,123 -4,37 -25,70 -54,92 6,-4 13,-6 20,-6 31,0 57,39 57,87 0,20 -5,38 -12,53 11,11 17,24 18,38 0,37 -34,69 -92,69 -30,1 -81,1 -100,-14 -15,-11 -3,-39 -3,-55 0,-32 34,-59 78,-65 -1,-9 -2,-5 -2,-26 0,-21 3,-40 11,-60z"/>
  </g>
  <path class="fil3 str0" d="M660 488c5,8 7,16 7,24 0,20 -13,38 -34,53 -29,19 -73,31 -122,31 -87,0 -157,-38 -157,-84 0,-22 16,-42 42,-56 -1,-6 -1,-12 -1,-18 0,-61 51,-112 118,-120 18,45 87,62 129,44 32,22 31,48 31,76 0,27 -5,35 -13,50z"/>
  <g>
   <g>
    <path class="fil3" d="M573 470c-20,7 -45,27 -69,30 -33,5 -55,-22 -61,12 -7,33 19,49 49,56 10,2 23,3 32,2 9,0 42,-2 65,-20 24,-19 30,-60 25,-70 -2,-4 -7,-8 -10,-10 -10,-4 -19,-4 -31,0z"/>
    <path id="1" class="fil2" d="M576 479c-7,3 -15,7 -24,12 -14,8 -30,16 -47,19 -14,1 -25,-2 -35,-4 -3,-1 -5,-1 -7,-2 -5,-1 -9,0 -11,10 -3,11 0,20 6,27 8,9 21,14 36,18 4,1 9,1 14,2 6,0 11,0 15,0 5,0 15,-1 26,-4 11,-2 24,-7 34,-15 8,-6 14,-17 18,-27 5,-14 6,-27 4,-31 0,-1 -1,-2 -2,-3 -1,-1 -2,-2 -3,-2 -4,-2 -7,-3 -11,-3 -3,0 -8,1 -13,3zm-3 -9c-20,7 -45,27 -69,30 -33,5 -55,-22 -61,12 -7,33 19,49 49,56 10,2 23,3 32,2 9,0 42,-2 65,-20 24,-19 30,-60 25,-70 -2,-4 -7,-8 -10,-10 -10,-4 -19,-4 -31,0z"/>
   </g>
   <ellipse class="fil3 str1" transform="matrix(-1.37917 0.167927 0.0913699 1.42707 495.931 473.583)" rx="15" ry="6"/>
   <ellipse class="fil2" transform="matrix(-1.07118 0.689026 0.514282 1.22509 576.788 508.235)" rx="33" ry="24"/>
   <g>
    <path class="fil3" d="M607 525c0,0 -62,4 -64,43 5,0 25,-5 38,-13 15,-8 24,-24 26,-30z"/>
    <path id="1" class="fil2" d="M593 535c-14,3 -33,9 -40,24 2,-1 5,-2 8,-3 5,-2 11,-4 16,-7l1 -1c5,-2 9,-6 12,-10 1,-1 2,-2 3,-3zm14 -10c0,0 -62,4 -64,43 5,0 25,-5 38,-13 15,-8 24,-24 26,-30z"/>
   </g>
   <g>
    <path class="fil3" d="M566 473c0,0 5,8 2,16 -2,6 -10,13 -20,17 -22,11 -57,16 -51,-5 24,0 54,-21 69,-28z"/>
    <path id="1" class="fil2" d="M566 473c0,0 5,8 2,16 -2,6 -10,13 -20,17 -22,11 -57,16 -51,-5 24,0 54,-21 69,-28zm-5 14c0,-1 0,-2 0,-3 -2,1 -4,2 -6,3 -14,8 -31,17 -48,20 2,1 5,1 7,1 10,-1 22,-4 31,-8 4,-2 8,-5 11,-7 3,-2 4,-4 5,-6z"/>
   </g>
  </g>
  <g>
   <path class="fil4 str2" d="M497 570c-7,7 25,11 24,0 -2,0 -7,1 -13,0 -5,0 -10,0 -11,0z"/>
   <path id="1" class="fil0" d="M497 570c-7,7 25,11 24,0 -2,0 -7,1 -13,0 -5,0 -10,0 -11,0z"/>
  </g>
  <g>
   <path class="fil4 str3" d="M483 499c-3,0 -1,-7 2,-9 4,-1 12,3 13,1 9,-10 30,3 20,6 -10,3 -23,6 -35,2z"/>
   <path id="1" class="fil0" d="M483 499c-3,0 -1,-7 2,-9 4,-1 12,3 13,1 9,-10 30,3 20,6 -10,3 -23,6 -35,2z"/>
  </g>
  <g>
   <path class="fil3" d="M673 472c2,-8 9,-19 14,-22 14,-8 39,26 -15,55 -1,-6 -2,-12 -5,-17 2,-5 5,-11 6,-16z"/>
   <path id="1" class="fil2" d="M662 469c2,-5 4,-11 7,-16 4,-5 8,-10 13,-12l0 0c8,-5 17,-4 24,2 4,2 6,6 8,11 2,4 3,9 3,14 -1,14 -11,32 -39,47l-14 7 -3 -15c0,-3 -1,-5 -1,-8 -1,-2 -2,-3 -3,-5l-3 -5 2 -6c2,-3 3,-5 4,-8 1,-2 2,-4 2,-6zm11 3c2,-8 9,-19 14,-22 14,-8 39,26 -15,55 -1,-6 -2,-12 -5,-17 2,-5 5,-11 6,-16z"/>
  </g>
  <g>
   <path class="fil5" d="M671 494c0,1 -1,2 -2,2 -1,-1 -2,-2 -2,-3l4 1zm19 -30l1 4 -1 0 -1 1 -1 0 -1 1 -1 0 -1 1 -1 0 -1 1 0 0 -1 1 -1 1 -1 1 0 0 -1 1 0 1 -1 1 -1 1 0 0 -1 1 0 1 -1 1 0 1 -1 1 0 1 0 1 -1 2 0 1 -1 1 0 1 0 1 -1 1 0 1 -4 -1 1 -1 0 -1 0 -1 1 -1 0 -2 1 -1 0 -1 1 -1 0 -1 0 -1 1 -1 0 -1 1 -1 1 -1 0 -1 1 -1 1 -1 0 -1 1 -1 1 -1 1 -1 0 -1 1 0 1 -1 1 -1 1 -1 1 0 1 -1 2 0 1 -1 1 0 1 -1zm0 0c1,0 3,1 3,2 0,1 0,2 -2,2l-1 -4z"/>
  </g>
  <g>
   <path class="fil2" d="M563 398c-1,2 -2,4 -3,6 1,0 1,0 2,1 5,2 9,5 9,7 -1,2 -5,2 -10,0 -1,0 -2,-1 -3,-1 -7,26 -1,46 5,46 12,2 3,-12 10,-35 8,-24 11,-33 8,-36 -2,-3 -12,-8 -18,12zm16 -15c1,1 2,1 3,2 1,2 1,5 0,11 -1,6 -4,14 -8,26 -3,10 -3,18 -4,24 0,2 0,4 0,6 0,4 -2,7 -8,6 0,0 0,0 0,0 -2,-1 -5,-5 -6,-11 -2,-6 -3,-14 -1,-24 0,-4 1,-8 2,-12l0 -1 1 0c1,0 1,1 2,1l0 0c0,0 1,0 2,1 1,0 3,1 4,1 1,0 2,0 3,0 0,0 1,-1 1,-1 0,0 0,0 0,0 0,-1 -1,-2 -2,-3 -2,-2 -4,-3 -6,-4 0,0 -1,0 -1,0 0,0 -1,0 -1,0l-1 -1 0 0c1,-1 1,-2 2,-3 0,-2 0,-3 1,-4 2,-6 5,-10 8,-12 1,-2 3,-2 4,-2 2,-1 3,0 5,0z"/>
   <path id="1" class="fil2" d="M581 386c-2,-3 -12,-8 -18,12 -1,2 -2,4 -3,6 1,0 1,0 2,1 5,2 9,5 9,7 -1,2 -5,2 -10,0 -1,0 -2,-1 -3,-1 -7,26 -1,46 5,46 12,2 3,-12 10,-35 8,-24 11,-33 8,-36z"/>
  </g>
  <g>
   <path class="fil2" d="M481 378c-2,-3 -13,-8 -20,12 -1,3 -2,5 -2,7 0,0 1,1 2,1 5,2 9,5 9,8 0,2 -5,2 -10,0 -1,0 -3,-1 -4,-2 -8,28 0,49 5,50 13,2 4,-13 12,-38 8,-25 11,-35 8,-38z"/>
   <path id="1" class="fil2" d="M459 397c0,0 1,1 2,1 5,2 9,5 9,8 0,2 -5,2 -10,0 -1,0 -3,-1 -4,-2 -8,28 0,49 5,50 13,2 4,-13 12,-38 8,-25 11,-35 8,-38 -2,-3 -13,-8 -20,12 -1,3 -2,5 -2,7zm19 -22c2,0 3,1 4,2 1,2 1,6 0,12 -2,6 -4,15 -8,27 -4,11 -4,20 -4,26 -1,3 -1,5 -1,6 0,5 -2,7 -8,7l0 0c0,0 0,0 0,0 -3,-1 -6,-5 -7,-12 -2,-6 -3,-15 -1,-25 0,-4 1,-9 2,-14l1 -1 1 1c0,0 1,0 1,1l0 0c1,0 1,0 2,0 2,1 4,2 5,2 1,0 2,0 3,0 1,-1 1,-1 1,-1 0,0 0,0 0,0 0,-1 -1,-2 -2,-4 -2,-1 -4,-2 -7,-3 0,0 0,-1 -1,-1 0,0 0,0 -1,0l0 0 0 -1c0,-1 1,-2 1,-3 1,-2 1,-3 2,-4 2,-7 5,-11 8,-13 2,-2 3,-2 5,-3l0 0c2,0 3,0 4,1z"/>
  </g>
  <g>
   <g>
    <path class="fil5" d="M577 383c1,1 1,2 0,2 0,1 -1,1 -2,0l2 -2zm-1 -12l1 3 0 0 0 0 0 0 0 0 0 0 0 0 0 1 0 0 0 0 -1 0 0 1 0 0 0 1 0 0 0 1 0 0 0 1 0 0 0 0 0 1 0 0 0 1 0 0 1 1 0 0 0 0 0 1 0 0 0 0 0 0 0 0 0 0 -2 2 0 0 0 -1 -1 0 0 0 0 -1 0 0 0 0 0 -1 0 0 0 -1 0 0 0 -1 -1 0 0 -1 0 0 0 -1 0 0 0 -1 0 -1 1 0 0 -1 0 0 0 0 0 -1 0 0 0 -1 0 0 1 -1 0 0 0 0 1 -1 0 0zm0 0c1,0 2,1 2,1 0,1 0,2 -1,2l-1 -3z"/>
   </g>
   <g>
    <path class="fil5" d="M571 385c1,0 1,1 1,2 0,0 -1,1 -2,1l1 -3zm-8 -2l3 -2 0 0 0 0 0 0 0 1 0 0 0 0 0 0 1 0 0 1 0 0 0 0 0 0 0 0 0 0 0 0 1 1 0 0 0 0 0 0 0 0 0 0 1 0 0 0 0 0 0 0 0 1 0 0 1 0 0 0 0 0 0 0 1 0 0 0 -1 3 0 0 0 0 -1 0 0 -1 0 0 -1 0 0 0 0 0 0 0 -1 0 0 0 0 0 0 -1 -1 0 0 0 0 0 0 0 0 0 -1 -1 0 0 0 0 0 0 0 0 -1 -1 0 0 0 0 0 0 0 0 0 -1 -1 0 0 0 0 0 0 0zm0 -3l2 0 0 0 0 0 0 0 0 0 0 0 0 0 0 0 0 0 0 1 0 0 0 0 0 0 0 0 0 0 0 0 0 0 1 0 0 0 0 0 0 0 0 0 0 0 0 0 0 0 0 0 0 0 0 0 0 0 0 0 0 0 0 0 0 0 -3 2 0 -1 0 0 0 0 0 0 0 0 0 0 0 0 0 0 0 0 0 0 0 0 0 -1 0 0 0 0 0 0 0 0 0 0 0 0 0 0 0 0 0 0 0 0 0 0 0 0 0 0 0 -1 0 0 0 0 0 0 0 0 0 0 0 0zm0 0c0,-1 0,-1 1,-1 1,0 1,0 1,1l-2 0z"/>
   </g>
   <g>
    <path class="fil5" d="M573 384c1,0 1,1 0,2 -1,0 -2,0 -2,-1l2 -1zm-6 -10l3 1 0 0 -1 1 0 0 0 1 0 0 0 1 0 0 0 0 1 1 0 0 0 0 0 1 0 0 0 0 0 0 0 1 1 0 0 0 0 0 0 1 0 0 1 0 0 0 0 0 0 0 0 1 0 0 1 0 0 0 0 0 0 0 0 1 0 0 -2 1 0 0 0 0 0 0 0 0 0 0 0 0 -1 0 0 0 0 -1 0 0 0 0 -1 0 0 0 0 -1 0 0 -1 0 0 -1 0 0 0 0 -1 -1 0 0 0 -1 0 0 0 -1 0 0 0 -1 0 0 0 -1 0 -1 0 0 0 -1 0 -1 0 0zm0 -1l2 2 0 0 1 0 0 0 0 0 0 0 0 0 0 0 0 0 0 0 0 0 0 0 0 0 0 0 0 0 0 0 0 0 0 0 0 0 0 0 0 0 0 0 0 0 0 0 0 0 0 0 0 0 0 0 0 0 0 0 0 0 0 0 0 0 -3 -1 0 0 0 0 0 0 0 0 0 0 0 0 0 0 0 0 0 0 0 0 0 0 0 0 0 0 0 0 0 0 0 0 0 0 0 0 0 0 0 0 0 0 0 0 0 0 0 0 0 0 0 0 0 0 0 0 0 0 0 0 0 -1 0 0zm0 0c1,0 2,0 2,0 1,1 1,2 0,2l-2 -2z"/>
   </g>
  </g>
  <g>
   <g>
    <path class="fil5" d="M475 376c1,0 0,1 -1,1 -1,0 -1,0 -1,-1l2 0zm0 -12l2 2 0 1 -1 0 0 0 0 0 0 0 0 1 0 0 -1 0 0 0 0 1 0 0 0 0 0 0 0 1 0 0 0 0 0 1 0 0 0 0 0 0 0 1 0 0 0 0 0 1 0 0 0 1 0 0 0 0 0 1 0 0 0 0 0 1 -2 0 0 0 -1 -1 0 0 0 0 0 -1 0 0 0 0 0 -1 0 0 0 -1 0 0 0 0 0 -1 0 0 0 -1 0 0 0 0 0 -1 0 0 0 -1 0 0 1 0 0 -1 0 0 0 -1 0 0 0 0 1 -1 0 0 0 0 1 -1 0 0zm0 0c1,0 2,0 2,0 0,1 0,2 0,2l-2 -2z"/>
   </g>
   <g>
    <path class="fil5" d="M472 375c1,1 1,2 1,2 -1,1 -1,1 -2,1l1 -3zm-4 -6l3 0 0 0 0 0 0 0 0 0 0 0 0 0 0 1 0 0 0 0 0 1 0 0 0 0 0 1 0 0 0 0 0 0 0 1 0 0 0 0 0 1 1 0 0 0 0 0 0 1 0 0 0 0 0 0 0 0 0 0 0 0 0 0 0 0 0 0 -1 3 0 0 -1 0 0 -1 0 0 0 0 0 0 -1 -1 0 0 0 0 0 -1 0 0 0 0 0 -1 0 0 0 0 -1 -1 0 0 0 0 0 -1 0 0 0 0 0 -1 0 0 0 0 0 -1 0 0 0 0 0 -1 0 0 0 0 0 0 0 0 0 0zm2 -7l2 2 0 1 0 0 0 0 0 0 -1 0 0 0 0 0 0 0 0 0 0 0 0 0 0 1 0 0 0 0 0 0 0 0 0 0 0 0 0 0 0 1 0 0 0 0 0 0 0 0 0 0 0 0 0 1 0 0 0 0 0 0 0 0 0 1 -3 0 0 -1 0 0 0 0 0 0 0 0 0 -1 0 0 0 0 0 0 0 0 0 -1 0 0 0 0 0 0 0 0 0 -1 0 0 0 0 0 0 0 0 1 -1 0 0 0 0 0 0 0 -1 0 0 0 0 0 0 1 0 0 0 0 -1 0 0zm0 0c1,0 2,0 2,0 1,1 1,2 0,2l-2 -2z"/>
   </g>
   <g>
    <path class="fil5" d="M471 378c1,1 1,2 1,2 -1,1 -2,1 -2,1l1 -3zm-6 -4l2 -1 0 0 0 0 0 0 0 1 1 0 0 0 0 0 0 0 0 1 0 0 0 0 0 0 0 0 0 1 1 0 0 0 0 0 0 0 0 0 0 0 0 1 0 0 0 0 1 0 0 0 0 0 0 0 0 1 0 0 1 0 0 0 0 0 0 0 -1 3 -1 -1 0 0 0 0 0 0 -1 0 0 -1 0 0 0 0 0 0 -1 0 0 0 0 -1 0 0 0 0 0 0 -1 0 0 -1 0 0 0 0 0 0 0 0 0 -1 0 0 -1 0 0 0 0 -1 0 0 0 0 0 0 0 -1 0 0 0 0 0 0zm-2 -6l3 0 0 0 0 0 0 0 0 1 0 0 0 0 0 0 0 0 0 0 0 1 0 0 0 0 0 0 0 0 0 0 0 0 0 1 0 0 0 0 0 0 1 0 0 0 0 0 0 0 0 1 0 0 0 0 0 0 0 0 0 0 0 1 0 0 -2 1 -1 0 0 -1 0 0 0 0 0 0 0 0 0 0 0 -1 0 0 0 0 0 0 0 0 0 -1 0 0 0 0 0 0 0 0 -1 0 0 -1 0 0 0 0 0 0 0 0 0 -1 0 0 0 0 0 0 0 0 0 0 0 -1 0 0 0 0zm0 0c0,-1 1,-2 2,-2 0,0 1,1 1,2l-3 0z"/>
   </g>
  </g>
  <g>
   <polygon class="fil6" points="585,369 581,372 580,372 580,372 580,371 579,371 579,371 578,371 578,370 577,370 577,370 576,370 576,370 575,370 574,370 574,370 573,371 572,371 571,371 571,372 570,372 569,372 568,373 567,374 566,374 565,375 564,376 563,377 562,377 561,378 559,379 558,380 557,381 556,383 552,378 553,377 554,376 556,375 557,374 558,373 559,372 560,371 562,370 563,370 564,369 565,368 566,367 567,367 568,366 569,366 570,366 571,365 572,365 573,365 574,365 575,364 576,364 577,365 578,365 579,365 580,365 581,366 582,366 583,367 584,367 584,368 "/>
  </g>
  <g>
   <polygon class="fil5" points="485,358 480,362 480,361 479,361 479,360 479,360 478,360 478,360 477,359 477,359 476,359 476,359 475,359 475,359 474,359 473,360 473,360 472,360 471,360 470,361 469,361 468,362 467,362 466,363 465,363 464,364 463,365 462,366 461,367 460,367 459,368 458,369 456,371 455,372 451,368 453,366 454,365 455,364 456,363 458,362 459,361 460,360 461,359 462,359 463,358 464,357 466,357 467,356 468,356 469,355 470,355 471,354 472,354 473,354 474,354 475,354 476,354 477,354 478,354 479,354 480,354 481,355 482,355 482,356 483,356 484,357 "/>
  </g>
  <g>
   <path class="fil5" d="M653 364c-4,2 -8,0 -10,-3 -2,-4 -1,-8 2,-10l8 13zm55 -124l15 -2 0 0 0 5 1 5 0 4 0 5 -1 5 0 5 -1 4 -1 5 -1 4 -1 5 -2 4 -1 5 -2 4 -2 4 -2 4 -2 4 -3 4 -2 4 -3 4 -3 4 -3 3 -3 4 -3 4 -4 3 -3 3 -4 4 -4 3 -3 3 -4 3 -4 2 -5 3 -4 3 -8 -13 4 -3 4 -2 4 -3 3 -2 4 -3 3 -3 4 -3 3 -3 3 -3 3 -3 3 -3 2 -4 3 -3 2 -3 2 -4 3 -3 2 -4 1 -4 2 -3 2 -4 1 -4 1 -4 1 -4 1 -3 1 -4 1 -4 0 -4 0 -5 1 -4 -1 -4 0 -4 0 -4 0 0zm-56 -86l6 -14 0 0 3 1 2 2 3 1 2 2 3 1 2 2 3 2 2 3 3 2 2 2 3 3 2 3 2 2 3 3 2 3 3 4 2 3 2 3 2 4 2 3 2 4 2 4 2 3 2 4 1 4 2 4 1 4 1 5 2 4 0 4 1 5 1 4 -15 2 -1 -4 0 -4 -1 -4 -1 -3 -1 -4 -1 -4 -2 -3 -1 -4 -2 -3 -1 -4 -2 -3 -2 -3 -2 -4 -2 -3 -2 -3 -2 -3 -2 -3 -2 -2 -2 -3 -2 -2 -2 -3 -3 -2 -2 -2 -2 -2 -2 -2 -2 -2 -2 -1 -2 -2 -2 -1 -2 -1 -2 -1 -2 -1 0 0zm-101 79l-15 2 0 0 0 -4 -1 -5 0 -5 0 -4 1 -6 0 -5 1 -5 1 -5 1 -6 1 -5 2 -5 2 -5 2 -5 3 -5 3 -5 3 -5 4 -4 4 -4 4 -4 5 -4 5 -3 5 -2 6 -2 7 -2 6 -1 7 0 8 0 8 1 8 1 8 3 9 3 9 3 -6 14 -8 -3 -8 -3 -8 -2 -7 -1 -6 -1 -6 0 -6 0 -5 1 -5 1 -5 2 -4 2 -4 2 -4 3 -3 2 -3 4 -3 3 -3 4 -2 4 -2 4 -2 4 -2 5 -1 4 -2 5 -1 5 0 4 -1 5 0 5 -1 4 0 4 1 4 0 4 0 4 0 0zm0 0c1,4 -2,8 -6,8 -4,1 -8,-2 -9,-6l15 -2zm112 9l14 -4 0 0 2 9 1 8 0 8 -1 7 -2 8 -2 6 -3 7 -4 5 -4 6 -5 4 -5 4 -6 4 -6 2 -6 3 -7 1 -6 1 -7 0 -7 0 -7 -1 -6 -2 -7 -3 -7 -3 -6 -5 -6 -4 -6 -6 -5 -7 -5 -7 -5 -8 -4 -9 -3 -9 -3 -11 -3 -11 15 -2 2 10 3 9 3 9 4 7 4 7 4 6 4 6 5 4 5 4 5 4 5 2 6 2 5 2 5 1 5 0 6 0 5 -1 5 -1 4 -2 5 -2 4 -2 4 -3 3 -4 4 -4 2 -4 3 -5 1 -5 2 -5 0 -6 1 -6 -1 -7 -1 -7 0 0zm-32 -8l-15 5 -1 -4 -1 -4 0 -3 0 -4 1 -3 0 -4 2 -3 1 -2 2 -3 2 -2 3 -2 2 -1 3 -1 3 -1 3 -1 3 0 3 0 3 1 3 1 3 1 3 1 3 2 2 2 3 2 2 2 3 3 2 3 2 3 2 4 2 4 1 4 1 4 -14 4 -1 -4 -1 -3 -2 -3 -1 -2 -1 -2 -2 -3 -2 -1 -1 -2 -2 -1 -2 -2 -1 -1 -2 0 -2 -1 -1 0 -2 -1 -1 0 -2 0 -1 1 -1 0 -1 0 -1 1 -1 0 -1 1 0 1 -1 1 0 1 0 1 -1 2 0 2 0 2 1 3 1 2zm0 0c1,4 -1,9 -5,10 -4,1 -9,-1 -10,-5l15 -5z"/>
  </g>
  <g>
   <path class="fil5" d="M691 544c0,-3 1,-5 4,-6 3,0 5,1 6,4l-10 2zm-61 22l4 -8 3 1 2 2 2 1 2 0 3 1 2 1 3 1 3 0 2 1 3 0 3 0 2 0 3 0 2 0 3 0 2 -1 2 0 3 -1 2 0 1 -1 2 -1 2 -1 1 -1 1 -2 1 -1 1 -1 1 -2 0 -2 1 -1 0 -3 0 -2 -1 -2 10 -2 0 3 0 4 0 3 -1 3 0 2 -2 3 -1 2 -2 3 -2 2 -2 1 -2 2 -2 1 -3 1 -3 1 -2 1 -3 1 -3 0 -3 0 -3 1 -3 0 -3 -1 -3 0 -3 0 -3 -1 -3 0 -3 -1 -3 -1 -3 -1 -3 -1 -2 -1 -3 -1 -2 -2zm0 0c-3,-1 -3,-4 -2,-6 1,-2 4,-3 6,-2l-4 8z"/>
  </g>
  <g>
   <path class="fil7" d="M720 307c-5,9 -11,19 -16,28 19,9 31,25 40,46l30 -12 -31 -8 7 -25 -26 3 -4 -32z"/>
   <circle class="fil7" transform="matrix(0.206602 0.239052 -0.239052 0.206602 721.911 304.784)" r="11"/>
   <circle class="fil7" transform="matrix(0.206602 0.239052 -0.239052 0.206602 751.46 334.26)" r="11"/>
   <circle class="fil7" transform="matrix(0.206602 0.239052 -0.239052 0.206602 776.495 367.941)" r="11"/>
  </g>
 </g>
</svg>
